<mxfile host="Electron" agent="Mozilla/5.0 (Windows NT 10.0; Win64; x64) AppleWebKit/537.36 (KHTML, like Gecko) draw.io/25.0.1 Chrome/128.0.6613.186 Electron/32.2.6 Safari/537.36" version="25.0.1">
  <diagram name="Página-1" id="3l9O1htGJPsyHYCnH2tZ">
    <mxGraphModel dx="1050" dy="621" grid="1" gridSize="10" guides="1" tooltips="1" connect="1" arrows="1" fold="1" page="1" pageScale="1" pageWidth="827" pageHeight="1169" math="0" shadow="0">
      <root>
        <mxCell id="0" />
        <mxCell id="1" parent="0" />
        <mxCell id="LUOrsydZeKrooT6doSIW-3" value="Utilizador" style="swimlane;fontStyle=0;childLayout=stackLayout;horizontal=1;startSize=26;fillColor=none;horizontalStack=0;resizeParent=1;resizeParentMax=0;resizeLast=0;collapsible=1;marginBottom=0;whiteSpace=wrap;html=1;" parent="1" vertex="1">
          <mxGeometry x="190" y="200" width="140" height="130" as="geometry" />
        </mxCell>
        <mxCell id="LUOrsydZeKrooT6doSIW-5" value="+ nome" style="text;strokeColor=none;fillColor=none;align=left;verticalAlign=top;spacingLeft=4;spacingRight=4;overflow=hidden;rotatable=0;points=[[0,0.5],[1,0.5]];portConstraint=eastwest;whiteSpace=wrap;html=1;" parent="LUOrsydZeKrooT6doSIW-3" vertex="1">
          <mxGeometry y="26" width="140" height="26" as="geometry" />
        </mxCell>
        <mxCell id="LUOrsydZeKrooT6doSIW-6" value="+ email" style="text;strokeColor=none;fillColor=none;align=left;verticalAlign=top;spacingLeft=4;spacingRight=4;overflow=hidden;rotatable=0;points=[[0,0.5],[1,0.5]];portConstraint=eastwest;whiteSpace=wrap;html=1;" parent="LUOrsydZeKrooT6doSIW-3" vertex="1">
          <mxGeometry y="52" width="140" height="26" as="geometry" />
        </mxCell>
        <mxCell id="LUOrsydZeKrooT6doSIW-7" value="+ password" style="text;strokeColor=none;fillColor=none;align=left;verticalAlign=top;spacingLeft=4;spacingRight=4;overflow=hidden;rotatable=0;points=[[0,0.5],[1,0.5]];portConstraint=eastwest;whiteSpace=wrap;html=1;" parent="LUOrsydZeKrooT6doSIW-3" vertex="1">
          <mxGeometry y="78" width="140" height="26" as="geometry" />
        </mxCell>
        <mxCell id="LUOrsydZeKrooT6doSIW-8" value="+ HorasHabituaisDiárias" style="text;strokeColor=none;fillColor=none;align=left;verticalAlign=top;spacingLeft=4;spacingRight=4;overflow=hidden;rotatable=0;points=[[0,0.5],[1,0.5]];portConstraint=eastwest;whiteSpace=wrap;html=1;" parent="LUOrsydZeKrooT6doSIW-3" vertex="1">
          <mxGeometry y="104" width="140" height="26" as="geometry" />
        </mxCell>
        <mxCell id="LUOrsydZeKrooT6doSIW-9" value="Projeto" style="swimlane;fontStyle=0;childLayout=stackLayout;horizontal=1;startSize=26;fillColor=none;horizontalStack=0;resizeParent=1;resizeParentMax=0;resizeLast=0;collapsible=1;marginBottom=0;whiteSpace=wrap;html=1;" parent="1" vertex="1">
          <mxGeometry x="414" y="226" width="140" height="104" as="geometry" />
        </mxCell>
        <mxCell id="LUOrsydZeKrooT6doSIW-11" value="+ nome" style="text;strokeColor=none;fillColor=none;align=left;verticalAlign=top;spacingLeft=4;spacingRight=4;overflow=hidden;rotatable=0;points=[[0,0.5],[1,0.5]];portConstraint=eastwest;whiteSpace=wrap;html=1;" parent="LUOrsydZeKrooT6doSIW-9" vertex="1">
          <mxGeometry y="26" width="140" height="26" as="geometry" />
        </mxCell>
        <mxCell id="LUOrsydZeKrooT6doSIW-12" value="+ cliente" style="text;strokeColor=none;fillColor=none;align=left;verticalAlign=top;spacingLeft=4;spacingRight=4;overflow=hidden;rotatable=0;points=[[0,0.5],[1,0.5]];portConstraint=eastwest;whiteSpace=wrap;html=1;" parent="LUOrsydZeKrooT6doSIW-9" vertex="1">
          <mxGeometry y="52" width="140" height="26" as="geometry" />
        </mxCell>
        <mxCell id="LUOrsydZeKrooT6doSIW-13" value="+ precoHora" style="text;strokeColor=none;fillColor=none;align=left;verticalAlign=top;spacingLeft=4;spacingRight=4;overflow=hidden;rotatable=0;points=[[0,0.5],[1,0.5]];portConstraint=eastwest;whiteSpace=wrap;html=1;" parent="LUOrsydZeKrooT6doSIW-9" vertex="1">
          <mxGeometry y="78" width="140" height="26" as="geometry" />
        </mxCell>
        <mxCell id="LUOrsydZeKrooT6doSIW-14" value="Tarefa" style="swimlane;fontStyle=0;childLayout=stackLayout;horizontal=1;startSize=26;fillColor=none;horizontalStack=0;resizeParent=1;resizeParentMax=0;resizeLast=0;collapsible=1;marginBottom=0;whiteSpace=wrap;html=1;" parent="1" vertex="1">
          <mxGeometry x="414" y="388" width="140" height="130" as="geometry" />
        </mxCell>
        <mxCell id="LUOrsydZeKrooT6doSIW-16" value="+ descricao" style="text;strokeColor=none;fillColor=none;align=left;verticalAlign=top;spacingLeft=4;spacingRight=4;overflow=hidden;rotatable=0;points=[[0,0.5],[1,0.5]];portConstraint=eastwest;whiteSpace=wrap;html=1;" parent="LUOrsydZeKrooT6doSIW-14" vertex="1">
          <mxGeometry y="26" width="140" height="26" as="geometry" />
        </mxCell>
        <mxCell id="LUOrsydZeKrooT6doSIW-17" value="+ dataHoraInicio" style="text;strokeColor=none;fillColor=none;align=left;verticalAlign=top;spacingLeft=4;spacingRight=4;overflow=hidden;rotatable=0;points=[[0,0.5],[1,0.5]];portConstraint=eastwest;whiteSpace=wrap;html=1;" parent="LUOrsydZeKrooT6doSIW-14" vertex="1">
          <mxGeometry y="52" width="140" height="26" as="geometry" />
        </mxCell>
        <mxCell id="LUOrsydZeKrooT6doSIW-18" value="+ dataHoraFim" style="text;strokeColor=none;fillColor=none;align=left;verticalAlign=top;spacingLeft=4;spacingRight=4;overflow=hidden;rotatable=0;points=[[0,0.5],[1,0.5]];portConstraint=eastwest;whiteSpace=wrap;html=1;" parent="LUOrsydZeKrooT6doSIW-14" vertex="1">
          <mxGeometry y="78" width="140" height="26" as="geometry" />
        </mxCell>
        <mxCell id="LUOrsydZeKrooT6doSIW-19" value="+ precoHora" style="text;strokeColor=none;fillColor=none;align=left;verticalAlign=top;spacingLeft=4;spacingRight=4;overflow=hidden;rotatable=0;points=[[0,0.5],[1,0.5]];portConstraint=eastwest;whiteSpace=wrap;html=1;" parent="LUOrsydZeKrooT6doSIW-14" vertex="1">
          <mxGeometry y="104" width="140" height="26" as="geometry" />
        </mxCell>
        <mxCell id="K6zcX9K6sNuJa0DypFoH-11" value="" style="endArrow=none;html=1;rounded=0;exitX=1;exitY=0.5;exitDx=0;exitDy=0;entryX=0;entryY=0.5;entryDx=0;entryDy=0;" parent="1" source="LUOrsydZeKrooT6doSIW-6" target="LUOrsydZeKrooT6doSIW-11" edge="1">
          <mxGeometry relative="1" as="geometry">
            <mxPoint x="220" y="320" as="sourcePoint" />
            <mxPoint x="380" y="320" as="targetPoint" />
          </mxGeometry>
        </mxCell>
        <mxCell id="K6zcX9K6sNuJa0DypFoH-14" value="1..*" style="edgeLabel;html=1;align=center;verticalAlign=middle;resizable=0;points=[];" parent="K6zcX9K6sNuJa0DypFoH-11" vertex="1" connectable="0">
          <mxGeometry x="-0.7615" y="-1" relative="1" as="geometry">
            <mxPoint y="-10" as="offset" />
          </mxGeometry>
        </mxCell>
        <mxCell id="K6zcX9K6sNuJa0DypFoH-15" value="0..*" style="edgeLabel;html=1;align=center;verticalAlign=middle;resizable=0;points=[];" parent="K6zcX9K6sNuJa0DypFoH-11" vertex="1" connectable="0">
          <mxGeometry x="0.6595" relative="1" as="geometry">
            <mxPoint y="-9" as="offset" />
          </mxGeometry>
        </mxCell>
        <mxCell id="K6zcX9K6sNuJa0DypFoH-16" value="" style="endArrow=none;html=1;rounded=0;exitX=1;exitY=0.5;exitDx=0;exitDy=0;entryX=0;entryY=0.5;entryDx=0;entryDy=0;" parent="1" source="LUOrsydZeKrooT6doSIW-7" target="LUOrsydZeKrooT6doSIW-16" edge="1">
          <mxGeometry relative="1" as="geometry">
            <mxPoint x="340" y="189" as="sourcePoint" />
            <mxPoint x="424" y="189" as="targetPoint" />
          </mxGeometry>
        </mxCell>
        <mxCell id="K6zcX9K6sNuJa0DypFoH-17" value="1" style="edgeLabel;html=1;align=center;verticalAlign=middle;resizable=0;points=[];" parent="K6zcX9K6sNuJa0DypFoH-16" vertex="1" connectable="0">
          <mxGeometry x="-0.7615" y="-1" relative="1" as="geometry">
            <mxPoint x="1" y="17" as="offset" />
          </mxGeometry>
        </mxCell>
        <mxCell id="K6zcX9K6sNuJa0DypFoH-18" value="0..*" style="edgeLabel;html=1;align=center;verticalAlign=middle;resizable=0;points=[];" parent="K6zcX9K6sNuJa0DypFoH-16" vertex="1" connectable="0">
          <mxGeometry x="0.6595" relative="1" as="geometry">
            <mxPoint y="25" as="offset" />
          </mxGeometry>
        </mxCell>
        <mxCell id="K6zcX9K6sNuJa0DypFoH-19" value="" style="endArrow=none;html=1;rounded=0;exitX=0.504;exitY=1.033;exitDx=0;exitDy=0;entryX=0.5;entryY=0;entryDx=0;entryDy=0;exitPerimeter=0;" parent="1" source="LUOrsydZeKrooT6doSIW-13" target="LUOrsydZeKrooT6doSIW-14" edge="1">
          <mxGeometry relative="1" as="geometry">
            <mxPoint x="340" y="215" as="sourcePoint" />
            <mxPoint x="424" y="359" as="targetPoint" />
          </mxGeometry>
        </mxCell>
        <mxCell id="K6zcX9K6sNuJa0DypFoH-20" value="1" style="edgeLabel;html=1;align=center;verticalAlign=middle;resizable=0;points=[];" parent="K6zcX9K6sNuJa0DypFoH-19" vertex="1" connectable="0">
          <mxGeometry x="-0.7615" y="-1" relative="1" as="geometry">
            <mxPoint x="7" y="7" as="offset" />
          </mxGeometry>
        </mxCell>
        <mxCell id="K6zcX9K6sNuJa0DypFoH-21" value="0..*" style="edgeLabel;html=1;align=center;verticalAlign=middle;resizable=0;points=[];" parent="K6zcX9K6sNuJa0DypFoH-19" vertex="1" connectable="0">
          <mxGeometry x="0.6595" relative="1" as="geometry">
            <mxPoint x="16" y="1" as="offset" />
          </mxGeometry>
        </mxCell>
        <mxCell id="K6zcX9K6sNuJa0DypFoH-34" value="1" style="text;html=1;align=center;verticalAlign=middle;resizable=0;points=[];autosize=1;strokeColor=none;fillColor=none;" parent="1" vertex="1">
          <mxGeometry x="435" y="198" width="30" height="30" as="geometry" />
        </mxCell>
        <mxCell id="BJjvSBYo8w7ckG1rMGJu-12" value="0..*" style="text;html=1;align=center;verticalAlign=middle;resizable=0;points=[];autosize=1;strokeColor=none;fillColor=none;" parent="1" vertex="1">
          <mxGeometry x="500" y="196" width="40" height="30" as="geometry" />
        </mxCell>
        <mxCell id="BJjvSBYo8w7ckG1rMGJu-13" value="mebrosProjeto" style="swimlane;fontStyle=0;childLayout=stackLayout;horizontal=1;startSize=26;fillColor=none;horizontalStack=0;resizeParent=1;resizeParentMax=0;resizeLast=0;collapsible=1;marginBottom=0;whiteSpace=wrap;html=1;" parent="1" vertex="1">
          <mxGeometry x="640" y="228" width="140" height="52" as="geometry" />
        </mxCell>
        <mxCell id="BJjvSBYo8w7ckG1rMGJu-15" value="+ cargo" style="text;strokeColor=none;fillColor=none;align=left;verticalAlign=top;spacingLeft=4;spacingRight=4;overflow=hidden;rotatable=0;points=[[0,0.5],[1,0.5]];portConstraint=eastwest;whiteSpace=wrap;html=1;" parent="BJjvSBYo8w7ckG1rMGJu-13" vertex="1">
          <mxGeometry y="26" width="140" height="26" as="geometry" />
        </mxCell>
        <mxCell id="BJjvSBYo8w7ckG1rMGJu-17" value="EstadoCargo&lt;div&gt;&amp;lt;&amp;lt;enum&amp;gt;&amp;gt;&lt;/div&gt;" style="swimlane;fontStyle=0;childLayout=stackLayout;horizontal=1;startSize=26;fillColor=none;horizontalStack=0;resizeParent=1;resizeParentMax=0;resizeLast=0;collapsible=1;marginBottom=0;whiteSpace=wrap;html=1;" parent="1" vertex="1">
          <mxGeometry x="640" y="350" width="140" height="104" as="geometry" />
        </mxCell>
        <mxCell id="BJjvSBYo8w7ckG1rMGJu-18" value="+ gestor" style="text;strokeColor=none;fillColor=none;align=left;verticalAlign=top;spacingLeft=4;spacingRight=4;overflow=hidden;rotatable=0;points=[[0,0.5],[1,0.5]];portConstraint=eastwest;whiteSpace=wrap;html=1;" parent="BJjvSBYo8w7ckG1rMGJu-17" vertex="1">
          <mxGeometry y="26" width="140" height="26" as="geometry" />
        </mxCell>
        <mxCell id="BJjvSBYo8w7ckG1rMGJu-19" value="+ membro" style="text;strokeColor=none;fillColor=none;align=left;verticalAlign=top;spacingLeft=4;spacingRight=4;overflow=hidden;rotatable=0;points=[[0,0.5],[1,0.5]];portConstraint=eastwest;whiteSpace=wrap;html=1;" parent="BJjvSBYo8w7ckG1rMGJu-17" vertex="1">
          <mxGeometry y="52" width="140" height="26" as="geometry" />
        </mxCell>
        <mxCell id="ZfaWN_k5MmABqzr-fIPP-1" value="+ convidado" style="text;strokeColor=none;fillColor=none;align=left;verticalAlign=top;spacingLeft=4;spacingRight=4;overflow=hidden;rotatable=0;points=[[0,0.5],[1,0.5]];portConstraint=eastwest;whiteSpace=wrap;html=1;" vertex="1" parent="BJjvSBYo8w7ckG1rMGJu-17">
          <mxGeometry y="78" width="140" height="26" as="geometry" />
        </mxCell>
        <mxCell id="BJjvSBYo8w7ckG1rMGJu-20" value="" style="endArrow=block;html=1;rounded=0;exitX=0.5;exitY=0.892;exitDx=0;exitDy=0;exitPerimeter=0;entryX=0.5;entryY=0;entryDx=0;entryDy=0;endFill=1;" parent="1" source="BJjvSBYo8w7ckG1rMGJu-15" target="BJjvSBYo8w7ckG1rMGJu-17" edge="1">
          <mxGeometry relative="1" as="geometry">
            <mxPoint x="700" y="320" as="sourcePoint" />
            <mxPoint x="860" y="320" as="targetPoint" />
          </mxGeometry>
        </mxCell>
        <mxCell id="BJjvSBYo8w7ckG1rMGJu-21" value="EstadoTarefa&lt;div&gt;&amp;lt;&amp;lt;enum&amp;gt;&amp;gt;&lt;/div&gt;" style="swimlane;fontStyle=0;childLayout=stackLayout;horizontal=1;startSize=26;fillColor=none;horizontalStack=0;resizeParent=1;resizeParentMax=0;resizeLast=0;collapsible=1;marginBottom=0;whiteSpace=wrap;html=1;" parent="1" vertex="1">
          <mxGeometry x="190" y="440" width="140" height="78" as="geometry" />
        </mxCell>
        <mxCell id="BJjvSBYo8w7ckG1rMGJu-22" value="+ associada" style="text;strokeColor=none;fillColor=none;align=left;verticalAlign=top;spacingLeft=4;spacingRight=4;overflow=hidden;rotatable=0;points=[[0,0.5],[1,0.5]];portConstraint=eastwest;whiteSpace=wrap;html=1;" parent="BJjvSBYo8w7ckG1rMGJu-21" vertex="1">
          <mxGeometry y="26" width="140" height="26" as="geometry" />
        </mxCell>
        <mxCell id="BJjvSBYo8w7ckG1rMGJu-23" value="+ independente" style="text;strokeColor=none;fillColor=none;align=left;verticalAlign=top;spacingLeft=4;spacingRight=4;overflow=hidden;rotatable=0;points=[[0,0.5],[1,0.5]];portConstraint=eastwest;whiteSpace=wrap;html=1;" parent="BJjvSBYo8w7ckG1rMGJu-21" vertex="1">
          <mxGeometry y="52" width="140" height="26" as="geometry" />
        </mxCell>
        <mxCell id="BJjvSBYo8w7ckG1rMGJu-24" value="" style="endArrow=block;html=1;rounded=0;exitX=0;exitY=0.5;exitDx=0;exitDy=0;entryX=1;entryY=0.5;entryDx=0;entryDy=0;endFill=1;" parent="1" source="LUOrsydZeKrooT6doSIW-18" target="BJjvSBYo8w7ckG1rMGJu-22" edge="1">
          <mxGeometry relative="1" as="geometry">
            <mxPoint x="720" y="313" as="sourcePoint" />
            <mxPoint x="720" y="360" as="targetPoint" />
          </mxGeometry>
        </mxCell>
        <mxCell id="BJjvSBYo8w7ckG1rMGJu-25" value="" style="endArrow=none;html=1;rounded=0;exitX=1;exitY=0.5;exitDx=0;exitDy=0;entryX=0;entryY=0.5;entryDx=0;entryDy=0;" parent="1" source="LUOrsydZeKrooT6doSIW-11" edge="1">
          <mxGeometry relative="1" as="geometry">
            <mxPoint x="340" y="275" as="sourcePoint" />
            <mxPoint x="640" y="267" as="targetPoint" />
          </mxGeometry>
        </mxCell>
        <mxCell id="BJjvSBYo8w7ckG1rMGJu-26" value="1" style="edgeLabel;html=1;align=center;verticalAlign=middle;resizable=0;points=[];" parent="BJjvSBYo8w7ckG1rMGJu-25" vertex="1" connectable="0">
          <mxGeometry x="-0.7615" y="-1" relative="1" as="geometry">
            <mxPoint y="-10" as="offset" />
          </mxGeometry>
        </mxCell>
        <mxCell id="BJjvSBYo8w7ckG1rMGJu-27" value="0..*" style="edgeLabel;html=1;align=center;verticalAlign=middle;resizable=0;points=[];" parent="BJjvSBYo8w7ckG1rMGJu-25" vertex="1" connectable="0">
          <mxGeometry x="0.6595" relative="1" as="geometry">
            <mxPoint y="-9" as="offset" />
          </mxGeometry>
        </mxCell>
        <mxCell id="BJjvSBYo8w7ckG1rMGJu-28" value="" style="endArrow=none;html=1;rounded=0;exitX=0.5;exitY=0;exitDx=0;exitDy=0;entryX=0.5;entryY=0;entryDx=0;entryDy=0;edgeStyle=orthogonalEdgeStyle;" parent="1" source="LUOrsydZeKrooT6doSIW-3" target="BJjvSBYo8w7ckG1rMGJu-13" edge="1">
          <mxGeometry relative="1" as="geometry">
            <mxPoint x="564" y="275" as="sourcePoint" />
            <mxPoint x="650" y="277" as="targetPoint" />
            <Array as="points">
              <mxPoint x="260" y="170" />
              <mxPoint x="710" y="170" />
            </Array>
          </mxGeometry>
        </mxCell>
        <mxCell id="BJjvSBYo8w7ckG1rMGJu-29" value="1" style="edgeLabel;html=1;align=center;verticalAlign=middle;resizable=0;points=[];" parent="BJjvSBYo8w7ckG1rMGJu-28" vertex="1" connectable="0">
          <mxGeometry x="-0.7615" y="-1" relative="1" as="geometry">
            <mxPoint x="-44" y="9" as="offset" />
          </mxGeometry>
        </mxCell>
        <mxCell id="BJjvSBYo8w7ckG1rMGJu-30" value="0..*" style="edgeLabel;html=1;align=center;verticalAlign=middle;resizable=0;points=[];" parent="BJjvSBYo8w7ckG1rMGJu-28" vertex="1" connectable="0">
          <mxGeometry x="0.6595" relative="1" as="geometry">
            <mxPoint x="44" y="40" as="offset" />
          </mxGeometry>
        </mxCell>
      </root>
    </mxGraphModel>
  </diagram>
</mxfile>
